<svg width="145" height="25" viewBox="0 0 145 25" fill="none" xmlns="http://www.w3.org/2000/svg">
<g clip-path="url(#clip0)">
<ellipse cx="11.6175" cy="12.8404" rx="7.9488" ry="9.17169" fill="white"/>
<path fill-rule="evenodd" clip-rule="evenodd" d="M33.926 7.10074C35.7155 7.10074 37.1944 7.70343 38.3627 8.90881C39.5292 10.1143 40.113 11.7799 40.1142 13.9055V23.9966H35.8906V14.4308C35.8906 13.3351 35.5957 12.4969 35.0058 11.916C34.416 11.3352 33.6299 11.0449 32.6476 11.045C31.5569 11.045 30.6835 11.3847 30.0274 12.0641C29.3738 12.7437 29.0463 13.7628 29.0451 15.1213V23.9969H24.8215V7.56091H29.0451V9.40268C30.0726 7.86878 31.6995 7.10146 33.926 7.10074ZM45.9756 0V23.9975H41.752V0H45.9756ZM49.9699 5.58852C49.2871 5.57735 48.6354 5.30007 48.1528 4.81535C47.6702 4.33063 47.3945 3.67652 47.3841 2.99146C47.3824 2.64849 47.4496 2.3087 47.5818 1.9924C47.7139 1.6761 47.9084 1.38979 48.1534 1.15061C48.3851 0.899967 48.6662 0.700446 48.979 0.564738C49.2917 0.42903 49.6292 0.360102 49.9699 0.362338C50.3161 0.357909 50.6594 0.425764 50.978 0.561592C51.2967 0.69742 51.5836 0.898254 51.8208 1.15133C52.0658 1.39052 52.2602 1.67682 52.3923 1.99312C52.5245 2.30942 52.5918 2.64922 52.59 2.99219C52.5928 3.33286 52.5259 3.67049 52.3936 3.98426C52.2613 4.29803 52.0664 4.58128 51.8208 4.81656C51.5812 5.06535 51.2934 5.26222 50.9751 5.39503C50.6567 5.52783 50.3146 5.59357 49.9699 5.58852ZM47.8753 23.9973V7.56091H52.0989V23.9975L47.8753 23.9973ZM63.1012 7.10056C64.8924 7.10056 66.3719 7.70325 67.5397 8.90862C68.7074 10.114 69.2912 11.7796 69.2912 13.9053V23.9964H65.0658V14.4307C65.0658 13.335 64.7714 12.4967 64.1828 11.9159C63.5929 11.3354 62.8068 11.045 61.8245 11.0448C60.732 11.0448 59.8587 11.3845 59.2044 12.0639C58.5501 12.7433 58.2227 13.7623 58.2221 15.1211V23.9968H53.9985V7.56091H58.2221V9.40268C59.2477 7.86878 60.8741 7.10128 63.1012 7.10056ZM74.4971 17.521C75.0659 19.5813 76.605 20.6114 79.1144 20.6112C80.7305 20.6112 81.953 20.0633 82.7818 18.9675L86.1874 20.9401C84.5731 23.2852 82.1937 24.4578 79.0494 24.4578C76.3426 24.4578 74.1703 23.636 72.5325 21.9923C70.8947 20.3486 70.0761 18.2776 70.0767 15.7793C70.0767 13.3033 70.8845 11.238 72.5 9.5833C74.1155 7.92862 76.1897 7.10129 78.7225 7.10129C81.1223 7.10129 83.1032 7.93406 84.6652 9.59961C86.2271 11.2652 87.0078 13.3252 87.0072 15.7796C87.0032 16.3641 86.9483 16.947 86.8429 17.5218L74.4971 17.521ZM74.4321 14.2339H82.7818C82.541 13.1162 82.0444 12.2834 81.2921 11.7356C80.5466 11.1902 79.645 10.9019 78.7225 10.9138C77.5867 10.9138 76.6477 11.2042 75.9056 11.7849C75.1416 12.4011 74.6196 13.2686 74.4321 14.2339ZM102.43 0.986102H104.591V23.9975H102.43V20.7758C100.924 23.1869 98.7192 24.3922 95.8155 24.3919C94.7017 24.4094 93.5962 24.1967 92.5679 23.7669C91.5396 23.337 90.6105 22.6994 89.8386 21.8936C88.19 20.2283 87.3659 18.1901 87.3665 15.7791C87.3671 13.3681 88.1912 11.33 89.8386 9.66483C90.6106 8.8591 91.5397 8.22147 92.5679 7.79165C93.5962 7.36184 94.7017 7.14904 95.8155 7.16651C98.7192 7.16651 100.924 8.37182 102.43 10.7825V0.986102ZM91.3951 20.3978C92.6155 21.6088 94.2626 22.2879 95.979 22.2879C97.6953 22.2879 99.3425 21.6088 100.563 20.3978C101.76 19.1604 102.43 17.5037 102.43 15.7791C102.43 14.0545 101.76 12.3978 100.563 11.1604C99.3425 9.94946 97.6953 9.2703 95.979 9.2703C94.2626 9.2703 92.6155 9.94946 91.3951 11.1604C90.1977 12.3978 89.528 14.0546 89.528 15.7792C89.528 17.5038 90.1977 19.1604 91.3951 20.3978ZM121.291 7.56073H123.452V23.9973H121.291V20.7758C119.785 23.1869 117.58 24.3922 114.676 24.3919C113.563 24.4096 112.457 24.1969 111.429 23.7671C110.401 23.3372 109.473 22.6995 108.701 21.8936C107.052 20.2283 106.227 18.1901 106.227 15.7791C106.227 13.3681 107.052 11.33 108.701 9.66483C109.473 8.85898 110.401 8.22126 111.43 7.79142C112.458 7.36159 113.563 7.14886 114.676 7.16651C117.58 7.16651 119.785 8.37182 121.291 10.7825V7.56073ZM110.256 20.3978C111.477 21.6087 113.124 22.2878 114.841 22.2878C116.557 22.2878 118.205 21.6087 119.425 20.3978C120.622 19.1599 121.291 17.5034 121.291 15.7791C121.291 14.0548 120.622 12.3983 119.425 11.1604C118.205 9.9494 116.557 9.27022 114.841 9.27022C113.124 9.27022 111.477 9.9494 110.256 11.1604C109.059 12.3978 108.389 14.0546 108.389 15.7792C108.389 17.5038 109.059 19.1604 110.256 20.3978ZM128.234 10.2886C129.238 8.29476 130.962 7.29762 133.407 7.29713V9.40268C131.923 9.40268 130.69 9.84099 129.707 10.7176C128.725 11.5942 128.234 12.9749 128.234 14.8595V23.9984H126.072V7.56091H128.234V10.2886ZM135.439 11.8666C135.433 12.2229 135.521 12.5746 135.693 12.8862C135.865 13.1978 136.116 13.4585 136.421 13.642C137.154 14.1146 137.962 14.4592 138.81 14.6611C139.749 14.9027 140.688 15.1712 141.627 15.4666C142.537 15.745 143.361 16.2545 144.018 16.9458C144.673 17.6361 145.001 18.5401 145 19.6578C145.015 20.3184 144.872 20.9731 144.585 21.5676C144.297 22.1621 143.872 22.6794 143.346 23.0766C142.243 23.9535 140.819 24.3918 139.074 24.3915C137.501 24.3915 136.163 24.0409 135.061 23.3397C134.016 22.7072 133.205 21.7489 132.754 20.6111L134.586 19.5262C134.885 20.3735 135.47 21.0889 136.24 21.5479C137.097 22.0571 138.079 22.3136 139.074 22.2876C140.143 22.2876 141.038 22.074 141.759 21.6468C142.48 21.2196 142.84 20.5566 142.839 19.6578C142.844 19.3014 142.756 18.9499 142.584 18.6383C142.411 18.3267 142.161 18.066 141.856 17.8823C141.122 17.4103 140.314 17.0658 139.465 16.8634C138.526 16.6227 137.588 16.3543 136.65 16.0581C135.74 15.7801 134.916 15.2705 134.259 14.5789C133.604 13.8884 133.277 12.9843 133.277 11.8668C133.27 11.2236 133.409 10.5873 133.684 10.0064C133.959 9.4255 134.363 8.91535 134.864 8.51495C135.924 7.61671 137.262 7.16747 138.877 7.16723C140.105 7.14034 141.317 7.45311 142.38 8.07127C143.354 8.64075 144.13 9.49528 144.606 10.5203L142.806 11.5722C142.172 10.0383 140.862 9.27133 138.877 9.27133C138.02 9.24799 137.176 9.48267 136.453 9.94509C136.131 10.1475 135.867 10.4318 135.689 10.7691C135.511 11.1065 135.424 11.485 135.439 11.8666Z" fill="white"/>
<path fill-rule="evenodd" clip-rule="evenodd" d="M52.7435 3.1431C52.7437 3.69637 52.5803 4.23727 52.274 4.69737C51.9677 5.15747 51.5323 5.51611 51.0229 5.72794C50.5135 5.93977 49.9529 5.99527 49.412 5.88742C48.8711 5.77957 48.3743 5.51321 47.9843 5.12204C47.5943 4.73086 47.3287 4.23244 47.221 3.68981C47.1134 3.14718 47.1686 2.5847 47.3796 2.07353C47.5906 1.56236 47.9479 1.12544 48.4064 0.818045C48.8649 0.510647 49.404 0.346573 49.9555 0.346573C50.3216 0.346502 50.6841 0.418785 51.0223 0.55929C51.3606 0.699794 51.6679 0.905769 51.9268 1.16546C52.1857 1.42514 52.3911 1.73345 52.5312 2.07278C52.6714 2.4121 52.7435 2.7758 52.7435 3.1431Z" fill="#EC5252"/>
<path fill-rule="evenodd" clip-rule="evenodd" d="M20.3356 20.9895C18.0214 23.3017 15.2052 24.4578 11.8871 24.4578C8.56903 24.4578 5.75811 23.3018 3.45436 20.9897C1.15145 18.6777 0 15.8451 0 12.4918C0 9.13847 1.15158 6.3062 3.45472 3.99496C5.75775 1.683 8.56866 0.526961 11.8875 0.52684C15.2063 0.526719 18.0224 1.68276 20.3359 3.99496C22.6498 6.3074 23.8068 9.13968 23.8071 12.4918C23.8073 15.8439 22.6502 18.6765 20.3356 20.9895ZM7.23248 16.5578C7.57683 18.6995 10.1832 21.1968 12.279 21.1968C14.3747 21.1968 16.8274 19.9715 17.5156 18.1169C18.1707 16.3512 18.3744 15.4537 17.5806 13.0529C16.9518 11.1506 16.846 8.92711 16.071 6.88443C15.3561 5.00244 13.8124 4.09859 11.7372 3.80455C9.55754 3.49657 7.98818 3.87702 6.6812 6.34092C5.73806 8.11837 5.91719 6.77573 5.9589 9.9643C5.96414 10.3685 6.6969 13.2279 7.23248 16.5578Z" fill="#EC5252"/>
<path fill-rule="evenodd" clip-rule="evenodd" d="M9.8358 3.61325C8.3691 3.95533 7.09792 4.86795 6.30189 6.15036C5.50585 7.43278 5.25017 8.97993 5.59108 10.4515L7.15863 17.1439C7.50949 18.6104 8.42438 19.8781 9.70356 20.6703C10.9827 21.4625 12.5223 21.7148 13.9863 21.3721C15.4502 21.0294 16.7196 20.1196 17.5173 18.8413C18.315 17.5629 18.5762 16.0199 18.244 14.549L16.6763 7.85659C16.327 6.38559 15.4111 5.11328 14.1292 4.31804C12.8472 3.5228 11.3035 3.26939 9.8358 3.61325V3.61325ZM16.0114 8.01203L16.0318 8.09953C14.7687 9.19093 13.2708 9.9741 11.6556 10.3877L11.2222 8.53507C11.4425 8.43036 11.6204 8.25319 11.7264 8.033C11.8324 7.81281 11.8601 7.56286 11.8049 7.32467L11.4799 5.93565C11.4234 5.69747 11.2876 5.48576 11.0949 5.33555C10.9022 5.18533 10.6641 5.10559 10.4201 5.10952L10.2143 4.23085C11.4796 3.99454 12.7871 4.25525 13.8662 4.95904C14.9454 5.66284 15.7136 6.75587 16.0119 8.01203H16.0114ZM10.2966 5.58002C10.4554 5.54273 10.6225 5.57008 10.7612 5.65609C10.9 5.74209 10.9991 5.87975 11.037 6.03892L11.362 7.42794C11.3969 7.58666 11.368 7.75278 11.2817 7.8903C11.1953 8.02781 11.0584 8.12563 10.9007 8.16257C10.7429 8.19951 10.577 8.17259 10.4389 8.08764C10.3008 8.0027 10.2016 7.86657 10.1628 7.70875L9.83779 6.31973C9.8195 6.24093 9.81685 6.15929 9.83001 6.07947C9.84317 5.99964 9.87187 5.9232 9.91448 5.85451C9.95709 5.78582 10.0128 5.72622 10.0783 5.67913C10.1439 5.63203 10.2181 5.59835 10.2966 5.58002V5.58002ZM9.77116 4.33412L9.97683 5.21297C9.75666 5.31776 9.57885 5.49496 9.47292 5.71513C9.36699 5.93531 9.33931 6.18522 9.39448 6.42336L9.71951 7.81238C9.77601 8.05049 9.9118 8.26213 10.1044 8.41231C10.2971 8.56249 10.535 8.64223 10.7789 8.63834L11.2123 10.491C9.58021 10.837 7.89048 10.7998 6.27508 10.3823L6.25468 10.2949C5.96379 9.03833 6.16696 7.71757 6.82191 6.60741C7.47687 5.49725 8.5332 4.68315 9.77116 4.33448V4.33412ZM13.8436 20.7227C12.5518 21.0253 11.1932 20.8022 10.0649 20.1023C8.9366 19.4024 8.13057 18.2826 7.82313 16.9879L6.39228 10.8808C8.08398 11.28 9.8447 11.2815 11.5371 10.8854C13.2295 10.4893 14.8078 9.70617 16.1488 8.5972L17.5793 14.7044C17.8794 15.9996 17.6544 17.3612 16.9538 18.4899C16.2532 19.6186 15.1345 20.4219 13.8436 20.723V20.7227Z" fill="#EC5252"/>
</g>
<defs>
<clipPath id="clip0">
<rect width="145" height="24.4578" fill="white"/>
</clipPath>
</defs>
</svg>
